<svg id="Layer_1" data-name="Layer 1" xmlns="http://www.w3.org/2000/svg" viewBox="0 0 1080 1080"><defs><style>.cls-1{opacity:0.38;}.cls-2{fill:#e6e9ed;}.cls-2,.cls-3,.cls-4,.cls-5{opacity:0.81;}.cls-3{fill:#ed5564;}.cls-4{fill:#dfdfdf;}.cls-5{fill:#434a54;}</style></defs><title>background</title><g class="cls-1"><path class="cls-2" d="M732.46,625.51c160.5-7.46,280.91-22.67,345-32.31,0,.34-.06.69-.11,1-.23,2.24-.46,4.47-.71,6.71-.21,2-.45,4-.7,6-.06.53-.13,1.06-.21,1.58q-.4,3.24-.84,6.46c-.6,4.3-1.23,8.58-1.95,12.87-.35,2.13-.71,4.28-1.09,6.41s-.78,4.41-1.2,6.6-.85,4.41-1.29,6.6-.91,4.39-1.37,6.59c0,.23-.11.48-.15.71q-1.74,8-3.73,16t-4.22,15.89q-.91,3.23-1.86,6.45-1.43,4.85-3,9.64c-1,3.21-2.07,6.41-3.14,9.6-.72,2.11-1.46,4.24-2.2,6.37-1.5,4.24-3,8.46-4.62,12.66v0q-2.4,6.3-5,12.57c-.84,2.09-1.7,4.18-2.59,6.24a540.29,540.29,0,0,1-995.1,0q-2.46-5.82-4.76-11.66-.6-1.45-1.14-2.91-2.09-5.28-4-10.59-3.13-8.61-6-17.28c-.49-1.5-1-3-1.44-4.49l-.12-.42c-.55-1.67-1.08-3.36-1.58-5s-1-3.29-1.48-4.94c-.61-2.09-1.2-4.16-1.79-6.22-.4-1.42-.78-2.81-1.16-4.22-.32-1.12-.62-2.24-.91-3.36q-3.22-12.08-5.87-24.3c-.44-2-.86-4.07-1.28-6.11-.78-3.86-1.54-7.75-2.24-11.63-.06-.36-.12-.69-.19-1q-.51-2.88-1-5.76c-.36-2.07-.7-4.11-1-6.18s-.63-4.14-.93-6.2c-.25-1.75-.48-3.51-.74-5.28q-.57-4.34-1.07-8.67c-.19-1.56-.36-3.12-.55-4.68v-.11c-.21-2-.42-3.92-.61-5.9,64.06,9.64,184.46,24.85,345,32.31a201.36,201.36,0,0,1-10-63c0-2.47,0-4.92.15-7.35H742.35q.15,3.65.15,7.35A201.65,201.65,0,0,1,732.46,625.51Z"/><path class="cls-3" d="M192.89,615.26l14.17,1.21C202.3,616.09,197.55,615.68,192.89,615.26Z"/><path class="cls-3" d="M1076.73,480.32c-26.83,4.14-65.35,9.54-113.86,14.89-56.28,6.21-133.42,13.15-226.55,17.6C714.1,425.1,634.51,360,540,360S365.88,425.1,343.67,512.81c-93.11-4.45-170.25-11.39-226.51-17.6C68.6,489.86,30.08,484.46,3.25,480.32A539.65,539.65,0,0,1,540,0a539.62,539.62,0,0,1,536.74,480.32Z"/><path class="cls-4" d="M1077.43,593.2c0,.34-.06.69-.11,1-.23,2.24-.46,4.47-.71,6.71-.21,2-.45,4-.7,6-.06.53-.13,1.06-.21,1.58q-.4,3.24-.84,6.46c-.6,4.3-1.25,8.58-1.95,12.87-.35,2.13-.71,4.28-1.09,6.41s-.78,4.41-1.2,6.6-.85,4.41-1.29,6.6-.91,4.39-1.37,6.59c0,.23-.11.48-.15.71-1.16,5.36-2.43,10.68-3.73,16s-2.72,10.61-4.22,15.89q-.91,3.23-1.86,6.45-1.43,4.85-3,9.64c-1,3.21-2.07,6.41-3.14,9.6-.72,2.11-1.46,4.24-2.2,6.37-1.5,4.24-3,8.46-4.62,12.66v0c-1.6,4.22-3.25,8.39-5,12.57-.84,2.09-1.7,4.18-2.59,6.24a540.29,540.29,0,0,1-995.1,0q-2.46-5.82-4.76-11.66-.6-1.45-1.14-2.91-2.09-5.28-4-10.59-3.13-8.61-6-17.28c-.49-1.5-1-3-1.44-4.49l-.12-.42c-.55-1.67-1.08-3.36-1.58-5s-1-3.29-1.48-4.94c-.61-2.09-1.2-4.16-1.79-6.22-.4-1.42-.78-2.81-1.16-4.22-.32-1.12-.62-2.24-.91-3.36q-3.22-12.08-5.87-24.3c-.44-2-.86-4.07-1.28-6.11-.78-3.86-1.54-7.75-2.24-11.63-.06-.36-.12-.69-.19-1q-.51-2.88-1-5.76c-.36-2.07-.7-4.11-1-6.18s-.63-4.14-.93-6.2c-.25-1.75-.48-3.51-.74-5.28q-.57-4.34-1.07-8.67c-.19-1.56-.36-3.12-.55-4.68v-.11c-.21-2-.42-3.92-.61-5.9,49,7.38,131.12,18,238.93,26l13.31.94c4.49.32,9,.62,13.58.93q10.29.71,20.87,1.33l14.19.85,14.45.8q14.56.78,29.62,1.49v0a201.29,201.29,0,0,1-10-63c0-2.47,0-4.92.15-7.35a199.79,199.79,0,0,1,6-42.35C365.88,425.1,445.49,360,540,360S714.1,425.1,736.32,512.81a201.08,201.08,0,0,1,6,42.35q.15,3.65.15,7.35a201.58,201.58,0,0,1-10,63v0q15.06-.69,29.61-1.49l14.45-.8,14.22-.85q10.56-.63,20.84-1.33c4.58-.31,9.11-.61,13.58-.93l13.34-.94C946.31,611.23,1028.39,600.58,1077.43,593.2Z"/><path class="cls-5" d="M742.35,555.16a201.08,201.08,0,0,0-6-42.35C714.1,425.1,634.51,360,540,360S365.88,425.1,343.67,512.81a199.79,199.79,0,0,0-6,42.35c-.11,2.43-.15,4.88-.15,7.35a201.29,201.29,0,0,0,10,63v0C374.09,706.41,450.34,765,540,765S705.9,706.41,732.46,625.51v0a201.58,201.58,0,0,0,10-63Q742.5,558.8,742.35,555.16ZM600,629.54a90,90,0,0,1-150-67c0-2.47.11-4.92.3-7.35a90,90,0,0,1,179.38,0c.19,2.43.3,4.88.3,7.35A89.76,89.76,0,0,1,600,629.54Z"/><path class="cls-3" d="M.91,571.5c.13,2.24.28,4.47.43,6.69-.12-1.61-.23-3.22-.33-4.84l-.18-3.23c0-1-.11-1.92-.15-2.89C.75,568.66.83,570.08.91,571.5Z"/><path class="cls-3" d="M1.48,580.39c-.06-.73-.09-1.46-.14-2.2,0,.6.07,1.19.12,1.78.15,2.22.34,4.41.53,6.63C1.8,584.53,1.65,582.46,1.48,580.39Z"/><path class="cls-3" d="M1077.6,591.4q.23-2.4.42-4.8l-.06.9C1077.83,588.81,1077.72,590.12,1077.6,591.4Z"/><path class="cls-3" d="M1079.35,566.7c.1-2.17.19-4.34.27-6.54v.28C1079.54,562.53,1079.45,564.61,1079.35,566.7Z"/><path class="cls-3" d="M1080,540c0,5.06-.06,10.12-.21,15.16l-.06,2.2c0,.95-.06,1.88-.11,2.8V560c.07-1.63.11-3.25.15-4.88.15-5,.21-10.1.21-15.16,0-2.51,0-5,0-7.51C1080,535,1080,537.49,1080,540Z"/><path class="cls-2" d="M.68,567.23c.1,2,.21,4.07.33,6.12l-.18-3.23C.78,569.15.72,568.2.68,567.23Z"/><path class="cls-2" d="M1.46,580c.15,2.22.34,4.41.53,6.63-.19-2.07-.34-4.14-.51-6.21C1.48,580.25,1.46,580.1,1.46,580Z"/><path class="cls-2" d="M1078,586.6c.11-1.1.19-2.22.27-3.32-.08,1.42-.21,2.81-.33,4.22s-.24,2.62-.36,3.9Q1077.83,589,1078,586.6Z"/><path class="cls-2" d="M1079.35,566.7c.1-2.17.19-4.34.27-6.54v.28C1079.54,562.53,1079.45,564.61,1079.35,566.7Z"/><path class="cls-2" d="M1079.79,555.16l-.06,2.2c0,.88-.06,1.79-.11,2.68.07-1.63.11-3.25.15-4.88Z"/><path class="cls-5" d="M1077.09,483.67c-.1-1.11-.23-2.23-.36-3.35h0C1076.88,481.44,1077,482.56,1077.09,483.67Z"/><path class="cls-2" d="M652.52,562.5A112.52,112.52,0,1,1,540,450,112.52,112.52,0,0,1,652.52,562.5Z"/><path class="cls-5" d="M347.53,625.49q-15-.69-29.62-1.47c-4.85-.28-9.68-.53-14.45-.8l-14.19-.85q-10.57-.66-20.87-1.33c-4.55-.31-9.09-.61-13.58-.93l-13.31-.94c-107.81-7.94-189.89-18.59-238.93-26Q0,566.82,0,540a550,550,0,0,1,3.25-59.68c26.83,4.14,65.35,9.54,113.91,14.89,56.26,6.21,133.4,13.15,226.51,17.6a199.79,199.79,0,0,0-6,42.35c-.11,2.43-.15,4.88-.15,7.35A201.29,201.29,0,0,0,347.53,625.49Z"/><path class="cls-5" d="M1080,540q0,26.79-2.55,53.2c-49,7.38-131.12,18-238.93,26l-13.34.94c-4.47.32-9,.62-13.58.93q-10.29.68-20.84,1.33l-14.22.85c-4.77.27-9.58.52-14.45.8q-14.55.78-29.61,1.47a201.58,201.58,0,0,0,10-63q0-3.71-.15-7.35a201.08,201.08,0,0,0-6-42.35c93.13-4.45,170.27-11.39,226.55-17.6,48.51-5.35,87-10.75,113.86-14.89h0A547.26,547.26,0,0,1,1080,540Z"/></g></svg>